<svg width="30" height="30" viewBox="0 0 30 30" fill="none" xmlns="http://www.w3.org/2000/svg">
<path d="M29.5537 6.17125C28.51 6.63375 27.3887 6.94625 26.21 7.0875C27.4263 6.35974 28.3362 5.21433 28.77 3.865C27.6273 4.54374 26.3767 5.02149 25.0725 5.2775C24.1955 4.34108 23.0338 3.72041 21.7679 3.51184C20.502 3.30328 19.2026 3.51849 18.0715 4.12407C16.9405 4.72964 16.041 5.6917 15.5127 6.86088C14.9844 8.03006 14.8569 9.34094 15.15 10.59C12.8346 10.4737 10.5695 9.87194 8.50178 8.82363C6.43403 7.77533 4.6098 6.30395 3.1475 4.505C2.6475 5.3675 2.36 6.3675 2.36 7.4325C2.35944 8.39124 2.59554 9.3353 3.04735 10.1809C3.49915 11.0265 4.1527 11.7475 4.95 12.28C4.02534 12.2506 3.12109 12.0007 2.3125 11.5512V11.6262C2.31241 12.9709 2.77754 14.2742 3.62898 15.315C4.48042 16.3558 5.66571 17.0699 6.98375 17.3363C6.12598 17.5684 5.22667 17.6026 4.35375 17.4363C4.72562 18.5933 5.44999 19.605 6.42546 20.3299C7.40092 21.0548 8.57865 21.4565 9.79375 21.4788C7.73104 23.098 5.18361 23.9764 2.56125 23.9725C2.09673 23.9726 1.63259 23.9455 1.17125 23.8913C3.83309 25.6027 6.93167 26.511 10.0962 26.5075C20.8087 26.5075 26.665 17.635 26.665 9.94C26.665 9.69 26.6588 9.4375 26.6475 9.1875C27.7866 8.36372 28.7699 7.34362 29.5512 6.175L29.5537 6.17125V6.17125Z" fill="white"/>
</svg>
