<svg width="264" height="255" viewBox="0 0 264 255" fill="none" xmlns="http://www.w3.org/2000/svg">
<path d="M132 255C204.902 255 264 197.916 264 127.5C264 57.0837 204.902 0 132 0C59.0984 0 0 57.0837 0 127.5C0 197.916 59.0984 255 132 255Z" fill="black"/>
<path d="M99.7734 174.084C94.5879 172.619 90.6768 170.202 88.04 166.833C85.4326 163.493 84.1289 159.069 84.1289 153.562V144.816C84.1289 137.697 81.0234 134.138 74.8125 134.138V127.766C81.0234 127.766 84.1289 124.221 84.1289 117.131V107.99C84.1875 102.629 85.4912 98.3076 88.04 95.0264C90.6182 91.7158 94.5293 89.3135 99.7734 87.8193L101.443 92.873C95.3203 94.8359 92.2588 99.9482 92.2588 108.21V117.087C92.2588 123.737 89.8125 128.366 84.9199 130.974C89.8125 133.61 92.2588 138.283 92.2588 144.992V154.045C92.3467 162.102 95.4082 167.097 101.443 169.03L99.7734 174.084ZM131.106 146.794L149.388 94.0156H158.616L134.886 158H127.415L103.729 94.0156H112.913L131.106 146.794ZM161.517 169.03C167.464 167.126 170.54 162.277 170.745 154.484V144.816C170.745 138.049 173.396 133.435 178.699 130.974C173.396 128.571 170.745 123.957 170.745 117.131V108.21C170.745 99.9482 167.684 94.8359 161.561 92.873L163.23 87.8193C168.416 89.2842 172.312 91.6719 174.92 94.9824C177.527 98.2637 178.846 102.614 178.875 108.034V117.263C178.875 124.265 181.98 127.766 188.191 127.766V134.138C181.98 134.138 178.875 137.697 178.875 144.816V153.693C178.875 159.201 177.542 163.61 174.876 166.921C172.239 170.231 168.357 172.619 163.23 174.084L161.517 169.03Z" fill="#8F00FF"/>
</svg>
